<svg xmlns="http://www.w3.org/2000/svg" xmlns:xlink="http://www.w3.org/1999/xlink" width="400" zoomAndPan="magnify" viewBox="0 0 300 66" height="88" preserveAspectRatio="xMidYMid meet" version="1.0"><defs><g/><clipPath id="id1"><path d="M 91 21 L 298.5625 21 L 298.5625 46 L 91 46 Z M 91 21 " clip-rule="nonzero"/></clipPath><clipPath id="id2"><path d="M 1.5625 0.34375 L 68 0.34375 L 68 65.59375 L 1.5625 65.59375 Z M 1.5625 0.34375 " clip-rule="nonzero"/></clipPath></defs><g clip-path="url(#id1)"><path fill="#282828" d="M 111.246094 24.292969 L 102.75 24.292969 L 102.75 45.730469 L 99.628906 45.730469 L 99.628906 24.292969 L 91.136719 24.292969 L 91.136719 21.570312 L 111.246094 21.570312 Z M 122.257812 21.570312 L 124.894531 21.570312 L 134.945312 45.730469 L 131.617188 45.730469 L 128.707031 38.652344 L 118.375 38.652344 L 115.496094 45.730469 L 112.167969 45.730469 Z M 128.011719 36.269531 L 123.574219 25.109375 L 119 36.269531 Z M 159.445312 39.503906 C 159.445312 40.433594 159.257812 41.28125 158.875 42.054688 C 158.492188 42.824219 157.972656 43.484375 157.316406 44.027344 C 156.65625 44.574219 155.894531 44.992188 155.027344 45.289062 C 154.160156 45.582031 153.230469 45.730469 152.234375 45.730469 L 140.550781 45.730469 L 140.550781 21.570312 L 152.789062 21.570312 C 153.644531 21.570312 154.417969 21.75 155.113281 22.113281 C 155.804688 22.476562 156.394531 22.949219 156.882812 23.527344 C 157.367188 24.105469 157.742188 24.761719 158.007812 25.5 C 158.273438 26.238281 158.40625 26.980469 158.40625 27.730469 C 158.40625 28.929688 158.101562 30.042969 157.488281 31.0625 C 156.875 32.085938 156.003906 32.84375 154.871094 33.34375 C 156.28125 33.75 157.394531 34.507812 158.214844 35.605469 C 159.035156 36.707031 159.445312 38.003906 159.445312 39.503906 Z M 156.292969 38.957031 C 156.292969 38.414062 156.195312 37.886719 155.996094 37.375 C 155.800781 36.863281 155.535156 36.417969 155.199219 36.03125 C 154.863281 35.644531 154.464844 35.339844 154.003906 35.113281 C 153.542969 34.886719 153.03125 34.773438 152.476562 34.773438 L 143.671875 34.773438 L 143.671875 43.074219 L 152.234375 43.074219 C 152.8125 43.074219 153.34375 42.960938 153.832031 42.734375 C 154.316406 42.507812 154.742188 42.207031 155.113281 41.832031 C 155.484375 41.457031 155.773438 41.023438 155.980469 40.523438 C 156.1875 40.023438 156.292969 39.503906 156.292969 38.957031 Z M 143.671875 24.222656 L 143.671875 32.289062 L 151.507812 32.289062 C 152.0625 32.289062 152.570312 32.179688 153.03125 31.964844 C 153.496094 31.75 153.894531 31.460938 154.230469 31.097656 C 154.5625 30.734375 154.832031 30.308594 155.027344 29.820312 C 155.222656 29.332031 155.320312 28.816406 155.320312 28.273438 C 155.320312 27.707031 155.230469 27.171875 155.042969 26.671875 C 154.859375 26.175781 154.609375 25.742188 154.296875 25.378906 C 153.988281 25.015625 153.605469 24.734375 153.15625 24.53125 C 152.703125 24.324219 152.222656 24.222656 151.714844 24.222656 Z M 166.125 45.730469 L 166.125 21.570312 L 169.246094 21.570312 L 169.246094 43.007812 L 182.976562 43.007812 L 182.976562 45.730469 Z M 205.394531 43.007812 L 205.394531 45.730469 L 188.683594 45.730469 L 188.683594 21.570312 L 205.082031 21.570312 L 205.082031 24.292969 L 191.804688 24.292969 L 191.804688 32.117188 L 203.351562 32.117188 L 203.351562 34.671875 L 191.804688 34.671875 L 191.804688 43.007812 Z M 211.972656 45.730469 L 211.972656 21.570312 L 215.089844 21.570312 L 215.089844 43.007812 L 228.820312 43.007812 L 228.820312 45.730469 Z M 251.242188 43.007812 L 251.242188 45.730469 L 234.53125 45.730469 L 234.53125 21.570312 L 250.929688 21.570312 L 250.929688 24.292969 L 237.648438 24.292969 L 237.648438 32.117188 L 249.195312 32.117188 L 249.195312 34.671875 L 237.648438 34.671875 L 237.648438 43.007812 Z M 272.273438 26.640625 C 271.996094 26.320312 271.625 26.015625 271.164062 25.722656 C 270.703125 25.425781 270.179688 25.160156 269.605469 24.921875 C 269.027344 24.683594 268.394531 24.488281 267.714844 24.34375 C 267.03125 24.195312 266.320312 24.121094 265.582031 24.121094 C 263.664062 24.121094 262.257812 24.472656 261.371094 25.175781 C 260.480469 25.878906 260.035156 26.84375 260.035156 28.070312 C 260.035156 28.726562 260.164062 29.269531 260.417969 29.703125 C 260.671875 30.132812 261.070312 30.5 261.613281 30.808594 C 262.15625 31.113281 262.832031 31.378906 263.640625 31.609375 C 264.449219 31.835938 265.410156 32.074219 266.519531 32.324219 C 267.789062 32.59375 268.9375 32.90625 269.96875 33.257812 C 270.996094 33.609375 271.875 34.046875 272.601562 34.566406 C 273.332031 35.089844 273.886719 35.726562 274.265625 36.472656 C 274.648438 37.222656 274.839844 38.140625 274.839844 39.230469 C 274.839844 40.386719 274.609375 41.390625 274.144531 42.242188 C 273.683594 43.09375 273.054688 43.796875 272.257812 44.351562 C 271.457031 44.90625 270.515625 45.316406 269.429688 45.578125 C 268.34375 45.835938 267.164062 45.96875 265.894531 45.96875 C 264 45.96875 262.203125 45.679688 260.503906 45.101562 C 258.804688 44.523438 257.261719 43.675781 255.875 42.566406 L 257.367188 39.980469 C 257.734375 40.363281 258.214844 40.75 258.804688 41.136719 C 259.394531 41.519531 260.0625 41.867188 260.816406 42.171875 C 261.566406 42.480469 262.375 42.730469 263.242188 42.921875 C 264.109375 43.113281 265.015625 43.210938 265.964844 43.210938 C 267.71875 43.210938 269.082031 42.90625 270.054688 42.292969 C 271.023438 41.679688 271.511719 40.761719 271.511719 39.535156 C 271.511719 38.855469 271.355469 38.28125 271.042969 37.816406 C 270.730469 37.351562 270.273438 36.949219 269.671875 36.609375 C 269.070312 36.269531 268.328125 35.96875 267.4375 35.707031 C 266.546875 35.449219 265.535156 35.179688 264.402344 34.910156 C 263.15625 34.613281 262.058594 34.296875 261.109375 33.957031 C 260.160156 33.617188 259.371094 33.207031 258.734375 32.730469 C 258.097656 32.253906 257.621094 31.675781 257.296875 30.996094 C 256.972656 30.316406 256.8125 29.496094 256.8125 28.546875 C 256.8125 27.386719 257.03125 26.367188 257.46875 25.484375 C 257.910156 24.597656 258.519531 23.847656 259.308594 23.238281 C 260.09375 22.625 261.027344 22.164062 262.113281 21.859375 C 263.203125 21.550781 264.378906 21.398438 265.652344 21.398438 C 267.316406 21.398438 268.816406 21.648438 270.160156 22.148438 C 271.5 22.648438 272.6875 23.316406 273.730469 24.15625 Z M 295.699219 26.640625 C 295.421875 26.320312 295.050781 26.015625 294.589844 25.722656 C 294.125 25.425781 293.605469 25.160156 293.027344 24.921875 C 292.449219 24.683594 291.820312 24.488281 291.136719 24.34375 C 290.457031 24.195312 289.746094 24.121094 289.007812 24.121094 C 287.085938 24.121094 285.683594 24.472656 284.792969 25.175781 C 283.902344 25.878906 283.460938 26.84375 283.460938 28.070312 C 283.460938 28.726562 283.585938 29.269531 283.839844 29.703125 C 284.09375 30.132812 284.492188 30.5 285.035156 30.808594 C 285.578125 31.113281 286.253906 31.378906 287.066406 31.609375 C 287.875 31.835938 288.832031 32.074219 289.941406 32.324219 C 291.214844 32.59375 292.363281 32.90625 293.390625 33.257812 C 294.421875 33.609375 295.296875 34.046875 296.027344 34.566406 C 296.753906 35.089844 297.308594 35.726562 297.691406 36.472656 C 298.070312 37.222656 298.261719 38.140625 298.261719 39.230469 C 298.261719 40.386719 298.03125 41.390625 297.570312 42.242188 C 297.105469 43.09375 296.476562 43.796875 295.679688 44.351562 C 294.882812 44.90625 293.941406 45.316406 292.855469 45.578125 C 291.769531 45.835938 290.589844 45.96875 289.316406 45.96875 C 287.421875 45.96875 285.625 45.679688 283.925781 45.101562 C 282.226562 44.523438 280.6875 43.675781 279.296875 42.566406 L 280.789062 39.980469 C 281.160156 40.363281 281.640625 40.75 282.226562 41.136719 C 282.816406 41.519531 283.488281 41.867188 284.238281 42.171875 C 284.992188 42.480469 285.800781 42.730469 286.667969 42.921875 C 287.53125 43.113281 288.441406 43.210938 289.386719 43.210938 C 291.144531 43.210938 292.507812 42.90625 293.480469 42.292969 C 294.449219 41.679688 294.933594 40.761719 294.933594 39.535156 C 294.933594 38.855469 294.777344 38.28125 294.464844 37.816406 C 294.15625 37.351562 293.699219 36.949219 293.097656 36.609375 C 292.496094 36.269531 291.75 35.96875 290.859375 35.707031 C 289.972656 35.449219 288.960938 35.179688 287.828125 34.910156 C 286.578125 34.613281 285.480469 34.296875 284.535156 33.957031 C 283.585938 33.617188 282.792969 33.207031 282.160156 32.730469 C 281.523438 32.253906 281.042969 31.675781 280.71875 30.996094 C 280.398438 30.316406 280.234375 29.496094 280.234375 28.546875 C 280.234375 27.386719 280.453125 26.367188 280.894531 25.484375 C 281.332031 24.597656 281.945312 23.847656 282.730469 23.238281 C 283.515625 22.625 284.453125 22.164062 285.539062 21.859375 C 286.625 21.550781 287.804688 21.398438 289.074219 21.398438 C 290.738281 21.398438 292.242188 21.648438 293.582031 22.148438 C 294.921875 22.648438 296.113281 23.316406 297.152344 24.15625 Z M 295.699219 26.640625 " fill-opacity="0.902" fill-rule="evenodd"/></g><g clip-path="url(#id2)"><path fill="#eb191e" d="M 6.226562 0.359375 L 62.769531 0.359375 C 63.078125 0.359375 63.378906 0.386719 63.679688 0.449219 C 63.980469 0.507812 64.273438 0.59375 64.554688 0.710938 C 64.839844 0.828125 65.105469 0.972656 65.363281 1.144531 C 65.617188 1.3125 65.851562 1.507812 66.070312 1.722656 C 66.285156 1.9375 66.480469 2.175781 66.648438 2.429688 C 66.820312 2.683594 66.960938 2.953125 67.078125 3.234375 C 67.195312 3.515625 67.285156 3.808594 67.34375 4.109375 C 67.40625 4.40625 67.433594 4.710938 67.433594 5.015625 L 67.433594 60.921875 C 67.433594 61.226562 67.40625 61.53125 67.34375 61.828125 C 67.285156 62.128906 67.195312 62.421875 67.078125 62.703125 C 66.960938 62.988281 66.820312 63.253906 66.648438 63.507812 C 66.480469 63.765625 66.285156 64 66.070312 64.214844 C 65.851562 64.433594 65.617188 64.625 65.363281 64.792969 C 65.105469 64.964844 64.839844 65.109375 64.554688 65.226562 C 64.273438 65.34375 63.980469 65.429688 63.679688 65.492188 C 63.378906 65.550781 63.078125 65.578125 62.769531 65.578125 L 6.226562 65.578125 C 5.921875 65.578125 5.617188 65.550781 5.316406 65.492188 C 5.015625 65.429688 4.726562 65.34375 4.441406 65.226562 C 4.160156 65.109375 3.890625 64.964844 3.636719 64.792969 C 3.382812 64.625 3.144531 64.433594 2.929688 64.214844 C 2.710938 64 2.519531 63.765625 2.347656 63.507812 C 2.179688 63.253906 2.035156 62.988281 1.917969 62.703125 C 1.800781 62.421875 1.710938 62.128906 1.652344 61.828125 C 1.59375 61.53125 1.5625 61.226562 1.5625 60.921875 L 1.5625 5.015625 C 1.5625 4.710938 1.59375 4.40625 1.652344 4.109375 C 1.710938 3.808594 1.800781 3.515625 1.917969 3.234375 C 2.035156 2.953125 2.179688 2.683594 2.347656 2.429688 C 2.519531 2.175781 2.710938 1.9375 2.929688 1.722656 C 3.144531 1.507812 3.382812 1.3125 3.636719 1.144531 C 3.890625 0.972656 4.160156 0.828125 4.441406 0.710938 C 4.726562 0.59375 5.015625 0.507812 5.316406 0.449219 C 5.617188 0.386719 5.921875 0.359375 6.226562 0.359375 Z M 6.226562 0.359375 " fill-opacity="1" fill-rule="evenodd"/></g><path fill="#ffffff" d="M 38.117188 19.074219 L 38.117188 27.988281 L 46.414062 25.164062 L 48.945312 31.695312 L 40.644531 35.128906 L 45.855469 42.4375 L 40.246094 46.535156 L 34.578125 39.171875 L 29.03125 46.535156 L 23.140625 42.4375 L 28.414062 34.851562 L 20.054688 31.695312 L 22.464844 25.164062 L 31.046875 27.988281 L 31.046875 19.074219 L 38.117188 19.074219 " fill-opacity="1" fill-rule="evenodd"/><g fill="#282828" fill-opacity="1"><g transform="translate(225.375182, 63.419973)"><g><path d="M 1.34375 -2.125 L 1.34375 0 L 0.625 0 L 0.625 -5.4375 L 2.640625 -5.4375 C 3.234375 -5.4375 3.695312 -5.28125 4.03125 -4.96875 C 4.363281 -4.664062 4.53125 -4.265625 4.53125 -3.765625 C 4.53125 -3.242188 4.363281 -2.835938 4.03125 -2.546875 C 3.707031 -2.265625 3.238281 -2.125 2.625 -2.125 Z M 1.34375 -2.71875 L 2.640625 -2.71875 C 3.015625 -2.71875 3.304688 -2.804688 3.515625 -2.984375 C 3.722656 -3.160156 3.828125 -3.421875 3.828125 -3.765625 C 3.828125 -4.085938 3.722656 -4.34375 3.515625 -4.53125 C 3.304688 -4.726562 3.023438 -4.832031 2.671875 -4.84375 L 1.34375 -4.84375 Z M 1.34375 -2.71875 "/></g></g><g transform="translate(230.192174, 63.419973)"><g><path d="M 0.34375 -2.0625 C 0.34375 -2.457031 0.421875 -2.8125 0.578125 -3.125 C 0.734375 -3.4375 0.945312 -3.675781 1.21875 -3.84375 C 1.5 -4.019531 1.816406 -4.109375 2.171875 -4.109375 C 2.722656 -4.109375 3.164062 -3.914062 3.5 -3.53125 C 3.84375 -3.15625 4.015625 -2.648438 4.015625 -2.015625 L 4.015625 -1.96875 C 4.015625 -1.582031 3.9375 -1.234375 3.78125 -0.921875 C 3.632812 -0.609375 3.421875 -0.363281 3.140625 -0.1875 C 2.859375 -0.0078125 2.535156 0.078125 2.171875 0.078125 C 1.628906 0.078125 1.1875 -0.109375 0.84375 -0.484375 C 0.507812 -0.867188 0.34375 -1.375 0.34375 -2 Z M 1.03125 -1.96875 C 1.03125 -1.519531 1.132812 -1.160156 1.34375 -0.890625 C 1.550781 -0.617188 1.828125 -0.484375 2.171875 -0.484375 C 2.523438 -0.484375 2.804688 -0.617188 3.015625 -0.890625 C 3.222656 -1.171875 3.328125 -1.5625 3.328125 -2.0625 C 3.328125 -2.5 3.21875 -2.851562 3 -3.125 C 2.789062 -3.40625 2.515625 -3.546875 2.171875 -3.546875 C 1.828125 -3.546875 1.550781 -3.410156 1.34375 -3.140625 C 1.132812 -2.867188 1.03125 -2.476562 1.03125 -1.96875 Z M 1.03125 -1.96875 "/></g></g><g transform="translate(234.546853, 63.419973)"><g><path d="M 4.09375 -0.953125 L 4.875 -4.03125 L 5.5625 -4.03125 L 4.390625 0 L 3.828125 0 L 2.84375 -3.0625 L 1.890625 0 L 1.328125 0 L 0.15625 -4.03125 L 0.84375 -4.03125 L 1.640625 -1.015625 L 2.578125 -4.03125 L 3.140625 -4.03125 Z M 4.09375 -0.953125 "/></g></g><g transform="translate(240.284739, 63.419973)"><g><path d="M 2.203125 0.078125 C 1.648438 0.078125 1.203125 -0.0976562 0.859375 -0.453125 C 0.515625 -0.816406 0.34375 -1.300781 0.34375 -1.90625 L 0.34375 -2.03125 C 0.34375 -2.4375 0.421875 -2.796875 0.578125 -3.109375 C 0.734375 -3.421875 0.945312 -3.664062 1.21875 -3.84375 C 1.488281 -4.019531 1.785156 -4.109375 2.109375 -4.109375 C 2.640625 -4.109375 3.046875 -3.9375 3.328125 -3.59375 C 3.617188 -3.25 3.765625 -2.753906 3.765625 -2.109375 L 3.765625 -1.828125 L 1.03125 -1.828125 C 1.039062 -1.421875 1.15625 -1.09375 1.375 -0.84375 C 1.601562 -0.601562 1.890625 -0.484375 2.234375 -0.484375 C 2.472656 -0.484375 2.675781 -0.53125 2.84375 -0.625 C 3.019531 -0.726562 3.171875 -0.863281 3.296875 -1.03125 L 3.71875 -0.703125 C 3.382812 -0.179688 2.878906 0.078125 2.203125 0.078125 Z M 2.109375 -3.546875 C 1.828125 -3.546875 1.59375 -3.441406 1.40625 -3.234375 C 1.21875 -3.035156 1.101562 -2.753906 1.0625 -2.390625 L 3.078125 -2.390625 L 3.078125 -2.4375 C 3.054688 -2.789062 2.960938 -3.0625 2.796875 -3.25 C 2.628906 -3.445312 2.398438 -3.546875 2.109375 -3.546875 Z M 2.109375 -3.546875 "/></g></g><g transform="translate(244.329968, 63.419973)"><g><path d="M 2.46875 -3.421875 C 2.363281 -3.429688 2.253906 -3.4375 2.140625 -3.4375 C 1.679688 -3.4375 1.375 -3.242188 1.21875 -2.859375 L 1.21875 0 L 0.515625 0 L 0.515625 -4.03125 L 1.1875 -4.03125 L 1.203125 -3.578125 C 1.429688 -3.929688 1.753906 -4.109375 2.171875 -4.109375 C 2.304688 -4.109375 2.40625 -4.09375 2.46875 -4.0625 Z M 2.46875 -3.421875 "/></g></g><g transform="translate(246.913695, 63.419973)"><g><path d="M 2.203125 0.078125 C 1.648438 0.078125 1.203125 -0.0976562 0.859375 -0.453125 C 0.515625 -0.816406 0.34375 -1.300781 0.34375 -1.90625 L 0.34375 -2.03125 C 0.34375 -2.4375 0.421875 -2.796875 0.578125 -3.109375 C 0.734375 -3.421875 0.945312 -3.664062 1.21875 -3.84375 C 1.488281 -4.019531 1.785156 -4.109375 2.109375 -4.109375 C 2.640625 -4.109375 3.046875 -3.9375 3.328125 -3.59375 C 3.617188 -3.25 3.765625 -2.753906 3.765625 -2.109375 L 3.765625 -1.828125 L 1.03125 -1.828125 C 1.039062 -1.421875 1.15625 -1.09375 1.375 -0.84375 C 1.601562 -0.601562 1.890625 -0.484375 2.234375 -0.484375 C 2.472656 -0.484375 2.675781 -0.53125 2.84375 -0.625 C 3.019531 -0.726562 3.171875 -0.863281 3.296875 -1.03125 L 3.71875 -0.703125 C 3.382812 -0.179688 2.878906 0.078125 2.203125 0.078125 Z M 2.109375 -3.546875 C 1.828125 -3.546875 1.59375 -3.441406 1.40625 -3.234375 C 1.21875 -3.035156 1.101562 -2.753906 1.0625 -2.390625 L 3.078125 -2.390625 L 3.078125 -2.4375 C 3.054688 -2.789062 2.960938 -3.0625 2.796875 -3.25 C 2.628906 -3.445312 2.398438 -3.546875 2.109375 -3.546875 Z M 2.109375 -3.546875 "/></g></g><g transform="translate(250.958923, 63.419973)"><g><path d="M 0.359375 -2.046875 C 0.359375 -2.671875 0.503906 -3.171875 0.796875 -3.546875 C 1.085938 -3.921875 1.472656 -4.109375 1.953125 -4.109375 C 2.421875 -4.109375 2.796875 -3.945312 3.078125 -3.625 L 3.078125 -5.734375 L 3.765625 -5.734375 L 3.765625 0 L 3.125 0 L 3.09375 -0.4375 C 2.8125 -0.09375 2.425781 0.078125 1.9375 0.078125 C 1.46875 0.078125 1.085938 -0.113281 0.796875 -0.5 C 0.503906 -0.882812 0.359375 -1.382812 0.359375 -2 Z M 1.046875 -1.96875 C 1.046875 -1.507812 1.140625 -1.148438 1.328125 -0.890625 C 1.515625 -0.640625 1.773438 -0.515625 2.109375 -0.515625 C 2.546875 -0.515625 2.867188 -0.707031 3.078125 -1.09375 L 3.078125 -2.953125 C 2.867188 -3.335938 2.550781 -3.53125 2.125 -3.53125 C 1.78125 -3.53125 1.515625 -3.394531 1.328125 -3.125 C 1.140625 -2.863281 1.046875 -2.476562 1.046875 -1.96875 Z M 1.046875 -1.96875 "/></g></g><g transform="translate(255.265134, 63.419973)"><g/></g><g transform="translate(257.155393, 63.419973)"><g><path d="M 3.9375 -1.96875 C 3.9375 -1.351562 3.796875 -0.859375 3.515625 -0.484375 C 3.234375 -0.109375 2.851562 0.078125 2.375 0.078125 C 1.863281 0.078125 1.46875 -0.101562 1.1875 -0.46875 L 1.15625 0 L 0.515625 0 L 0.515625 -5.734375 L 1.21875 -5.734375 L 1.21875 -3.59375 C 1.488281 -3.9375 1.867188 -4.109375 2.359375 -4.109375 C 2.847656 -4.109375 3.234375 -3.921875 3.515625 -3.546875 C 3.796875 -3.179688 3.9375 -2.675781 3.9375 -2.03125 Z M 3.25 -2.046875 C 3.25 -2.515625 3.15625 -2.878906 2.96875 -3.140625 C 2.789062 -3.398438 2.53125 -3.53125 2.1875 -3.53125 C 1.738281 -3.53125 1.414062 -3.316406 1.21875 -2.890625 L 1.21875 -1.140625 C 1.425781 -0.722656 1.753906 -0.515625 2.203125 -0.515625 C 2.535156 -0.515625 2.789062 -0.640625 2.96875 -0.890625 C 3.15625 -1.148438 3.25 -1.535156 3.25 -2.046875 Z M 3.25 -2.046875 "/></g></g><g transform="translate(261.439234, 63.419973)"><g><path d="M 1.84375 -1.015625 L 2.78125 -4.03125 L 3.515625 -4.03125 L 1.90625 0.625 C 1.644531 1.289062 1.242188 1.625 0.703125 1.625 L 0.578125 1.625 L 0.3125 1.578125 L 0.3125 1.015625 L 0.5 1.03125 C 0.726562 1.03125 0.910156 0.984375 1.046875 0.890625 C 1.179688 0.796875 1.289062 0.617188 1.375 0.359375 L 1.515625 -0.046875 L 0.078125 -4.03125 L 0.828125 -4.03125 Z M 1.84375 -1.015625 "/></g></g><g transform="translate(265.051978, 63.419973)"><g/></g></g><g fill="#282828" fill-opacity="1"><g transform="translate(266.933537, 63.419973)"><g><path d="M 3.75 -2.21875 L 1.609375 -2.21875 L 1.609375 0 L 0.484375 0 L 0.484375 -5.4375 L 4.015625 -5.4375 L 4.015625 -4.53125 L 1.609375 -4.53125 L 1.609375 -3.125 L 3.75 -3.125 Z M 3.75 -2.21875 "/></g></g><g transform="translate(271.116713, 63.419973)"><g><path d="M 2.5 -1.984375 L 1.609375 -1.984375 L 1.609375 0 L 0.484375 0 L 0.484375 -5.4375 L 2.5 -5.4375 C 3.144531 -5.4375 3.640625 -5.289062 3.984375 -5 C 4.335938 -4.71875 4.515625 -4.316406 4.515625 -3.796875 C 4.515625 -3.421875 4.429688 -3.109375 4.265625 -2.859375 C 4.109375 -2.609375 3.867188 -2.410156 3.546875 -2.265625 L 4.71875 -0.046875 L 4.71875 0 L 3.515625 0 Z M 1.609375 -2.890625 L 2.5 -2.890625 C 2.78125 -2.890625 3 -2.960938 3.15625 -3.109375 C 3.3125 -3.253906 3.390625 -3.453125 3.390625 -3.703125 C 3.390625 -3.953125 3.316406 -4.148438 3.171875 -4.296875 C 3.023438 -4.453125 2.800781 -4.53125 2.5 -4.53125 L 1.609375 -4.53125 Z M 1.609375 -2.890625 "/></g></g><g transform="translate(275.989629, 63.419973)"><g><path d="M 4.953125 -2.59375 C 4.953125 -2.0625 4.851562 -1.59375 4.65625 -1.1875 C 4.46875 -0.78125 4.195312 -0.46875 3.84375 -0.25 C 3.5 -0.03125 3.097656 0.078125 2.640625 0.078125 C 2.191406 0.078125 1.789062 -0.03125 1.4375 -0.25 C 1.082031 -0.46875 0.804688 -0.773438 0.609375 -1.171875 C 0.421875 -1.578125 0.328125 -2.039062 0.328125 -2.5625 L 0.328125 -2.828125 C 0.328125 -3.367188 0.421875 -3.84375 0.609375 -4.25 C 0.804688 -4.65625 1.078125 -4.960938 1.421875 -5.171875 C 1.773438 -5.390625 2.175781 -5.5 2.625 -5.5 C 3.082031 -5.5 3.488281 -5.390625 3.84375 -5.171875 C 4.195312 -4.960938 4.46875 -4.65625 4.65625 -4.25 C 4.851562 -3.84375 4.953125 -3.367188 4.953125 -2.828125 Z M 3.8125 -2.84375 C 3.8125 -3.40625 3.707031 -3.832031 3.5 -4.125 C 3.300781 -4.425781 3.015625 -4.578125 2.640625 -4.578125 C 2.265625 -4.578125 1.972656 -4.429688 1.765625 -4.140625 C 1.554688 -3.847656 1.453125 -3.421875 1.453125 -2.859375 L 1.453125 -2.59375 C 1.453125 -2.039062 1.550781 -1.609375 1.75 -1.296875 C 1.957031 -0.992188 2.253906 -0.84375 2.640625 -0.84375 C 3.015625 -0.84375 3.300781 -0.988281 3.5 -1.28125 C 3.707031 -1.582031 3.8125 -2.015625 3.8125 -2.578125 Z M 3.8125 -2.84375 "/></g></g><g transform="translate(281.261476, 63.419973)"><g><path d="M 4.90625 0 L 3.78125 0 L 1.609375 -3.578125 L 1.609375 0 L 0.484375 0 L 0.484375 -5.4375 L 1.609375 -5.4375 L 3.78125 -1.84375 L 3.78125 -5.4375 L 4.90625 -5.4375 Z M 4.90625 0 "/></g></g><g transform="translate(286.652628, 63.419973)"><g><path d="M 4.578125 -4.53125 L 2.90625 -4.53125 L 2.90625 0 L 1.796875 0 L 1.796875 -4.53125 L 0.15625 -4.53125 L 0.15625 -5.4375 L 4.578125 -5.4375 Z M 4.578125 -4.53125 "/></g></g><g transform="translate(291.376411, 63.419973)"><g><path d="M 1.671875 0 L 0.5625 0 L 0.5625 -5.4375 L 1.671875 -5.4375 Z M 1.671875 0 "/></g></g><g transform="translate(293.602219, 63.419973)"><g><path d="M 4.90625 0 L 3.78125 0 L 1.609375 -3.578125 L 1.609375 0 L 0.484375 0 L 0.484375 -5.4375 L 1.609375 -5.4375 L 3.78125 -1.84375 L 3.78125 -5.4375 L 4.90625 -5.4375 Z M 4.90625 0 "/></g></g></g></svg>