<?xml version="1.0" encoding="UTF-8"?>
<svg version="1.1" viewBox="0 0 191 42" xmlns="http://www.w3.org/2000/svg">
<title>logo</title>
<desc>Created with Sketch.</desc>
<g fill="none" fill-rule="evenodd">
<g transform="translate(-514 -82)">
<g transform="translate(514 82)">
<path d="m70.536 15.412h-5.4625v13.805h-2.0066v-13.805h-5.4625v-1.753h12.932v1.753zm7.0826-1.753h1.6945l6.4658 15.558h-2.1404l-1.8728-4.5579h-6.6441l-1.8505 4.5579h-2.1404l6.4881-15.558zm3.7011 9.4664l-2.8539-7.1875-2.943 7.1875h5.7969zm20.215 2.0817c0 0.59896-0.12262 1.1468-0.36788 1.6435s-0.57969 0.92035-1.0033 1.271c-0.42362 0.35061-0.91412 0.62087-1.4715 0.81078s-1.1557 0.28487-1.7948 0.28487h-7.5137v-15.558h7.8704c0.54996 0 1.0479 0.11687 1.4938 0.35061s0.82494 0.53687 1.1371 0.90939c0.31214 0.37252 0.55368 0.79617 0.72461 1.271 0.17094 0.47478 0.2564 0.95321 0.2564 1.4353 0 0.77426-0.19694 1.4901-0.59084 2.1475s-0.955 1.1468-1.6833 1.4682c0.9067 0.26296 1.6239 0.74869 2.1515 1.4572s0.7915 1.5449 0.7915 2.509zm-2.0289-0.35061c0-0.35061-0.063171-0.69026-0.18951-1.019-0.12634-0.3287-0.29728-0.61722-0.5128-0.86557s-0.47192-0.44556-0.7692-0.59165c-0.29728-0.14609-0.62428-0.21913-0.98101-0.21913h-5.6631v5.3468h5.507c0.3716 0 0.71346-0.073043 1.0256-0.21913 0.31214-0.14609 0.58712-0.33965 0.82494-0.5807s0.42362-0.52226 0.55739-0.84365c0.13378-0.32139 0.20066-0.65739 0.20066-1.008zm-8.1156-9.4883v5.1934h5.0388c0.35673 0 0.68373-0.069391 0.98101-0.20817s0.55368-0.32504 0.7692-0.55878c0.21553-0.23374 0.38646-0.50765 0.5128-0.82174 0.12634-0.31409 0.18951-0.64643 0.18951-0.99704 0-0.36522-0.059455-0.70852-0.17837-1.0299-0.11891-0.32139-0.2787-0.59896-0.47936-0.8327s-0.44591-0.41635-0.73576-0.54783-0.59827-0.19722-0.92527-0.19722h-5.1726zm14.44 13.849v-15.558h2.0066v13.805h8.8291v1.753h-10.836zm25.254-1.753v1.753h-10.747v-15.558h10.546v1.753h-8.5393v5.04h7.4245v1.6435h-7.4245v5.3687h8.7399zm4.2288 1.753v-15.558h2.0066v13.805h8.8291v1.753h-10.836zm25.254-1.753v1.753h-10.747v-15.558h10.546v1.753h-8.5393v5.04h7.4245v1.6435h-7.4245v5.3687h8.7399zm13.526-10.54c-0.17837-0.20452-0.41618-0.40174-0.71346-0.59165-0.29728-0.18991-0.63171-0.36156-1.0033-0.51496s-0.77663-0.27756-1.2151-0.37252c-0.43848-0.094957-0.89554-0.14243-1.3712-0.14243-1.2337 0-2.1367 0.22643-2.7089 0.6793-0.57226 0.45287-0.85839 1.0737-0.85839 1.8626 0 0.42365 0.081751 0.77426 0.24525 1.0518 0.1635 0.27757 0.4199 0.51496 0.7692 0.71217 0.3493 0.19722 0.78406 0.36887 1.3043 0.51496 0.52024 0.14609 1.1371 0.29948 1.8505 0.46017 0.81751 0.17531 1.557 0.37617 2.2184 0.60261s1.2263 0.50765 1.6945 0.84365c0.46821 0.336 0.82494 0.74504 1.0702 1.2271 0.24525 0.48209 0.36788 1.0737 0.36788 1.775 0 0.74505-0.14864 1.3915-0.44592 1.9393-0.29728 0.54783-0.70231 1.0007-1.2151 1.3586-0.5128 0.35791-1.1185 0.62087-1.8171 0.78887-0.6986 0.168-1.4566 0.252-2.2742 0.252-1.2188 0-2.3745-0.18626-3.467-0.55878-1.0925-0.37252-2.0846-0.91669-2.9765-1.6325l0.95872-1.6654c0.23782 0.24835 0.54624 0.49669 0.92527 0.74504 0.37903 0.24835 0.81008 0.47113 1.2932 0.66835 0.48308 0.19722 1.0033 0.35791 1.5607 0.48209 0.5574 0.12417 1.1408 0.18626 1.7502 0.18626 1.1297 0 2.0066-0.19722 2.6309-0.59165 0.62428-0.39444 0.93642-0.98608 0.93642-1.775 0-0.43826-0.10033-0.80713-0.30099-1.1066-0.20066-0.29948-0.49422-0.55878-0.88068-0.77791-0.38646-0.21913-0.86581-0.41269-1.4381-0.5807-0.57226-0.168-1.2225-0.33965-1.9509-0.51496-0.80265-0.18991-1.5087-0.39443-2.1181-0.61357-0.60942-0.21913-1.1185-0.48209-1.5273-0.78887s-0.71718-0.6793-0.92527-1.1176c-0.20809-0.43826-0.31214-0.96417-0.31214-1.5777 0-0.74505 0.1412-1.4024 0.42362-1.9722 0.28241-0.56974 0.6763-1.0518 1.1817-1.4463 0.50537-0.39444 1.1074-0.69026 1.806-0.88748 0.6986-0.19722 1.4566-0.29583 2.2742-0.29583 1.0702 0 2.0363 0.16069 2.8984 0.48209 0.8621 0.32139 1.6276 0.75235 2.2965 1.2929l-0.93642 1.5997zm15.064 0c-0.17837-0.20452-0.41618-0.40174-0.71346-0.59165s-0.63171-0.36156-1.0033-0.51496-0.77663-0.27756-1.2151-0.37252-0.89554-0.14243-1.3712-0.14243c-1.2337 0-2.1367 0.22643-2.7089 0.6793-0.57226 0.45287-0.85838 1.0737-0.85838 1.8626 0 0.42365 0.08175 0.77426 0.24525 1.0518s0.4199 0.51496 0.7692 0.71217c0.3493 0.19722 0.78406 0.36887 1.3043 0.51496 0.52024 0.14609 1.1371 0.29948 1.8505 0.46017 0.81751 0.17531 1.557 0.37617 2.2184 0.60261s1.2263 0.50765 1.6945 0.84365c0.46821 0.336 0.82494 0.74504 1.0702 1.2271 0.24525 0.48209 0.36788 1.0737 0.36788 1.775 0 0.74505-0.14864 1.3915-0.44591 1.9393-0.29728 0.54783-0.70231 1.0007-1.2151 1.3586-0.5128 0.35791-1.1185 0.62087-1.8171 0.78887s-1.4566 0.252-2.2742 0.252c-1.2188 0-2.3745-0.18626-3.467-0.55878-1.0925-0.37252-2.0846-0.91669-2.9765-1.6325l0.95872-1.6654c0.23782 0.24835 0.54624 0.49669 0.92527 0.74504 0.37903 0.24835 0.81008 0.47113 1.2932 0.66835 0.48308 0.19722 1.0033 0.35791 1.5607 0.48209 0.5574 0.12417 1.1408 0.18626 1.7502 0.18626 1.1297 0 2.0066-0.19722 2.6309-0.59165 0.62428-0.39444 0.93642-0.98608 0.93642-1.775 0-0.43826-0.10033-0.80713-0.30099-1.1066-0.20066-0.29948-0.49422-0.55878-0.88068-0.77791-0.38646-0.21913-0.86581-0.41269-1.4381-0.5807-0.57226-0.168-1.2225-0.33965-1.9509-0.51496-0.80265-0.18991-1.5087-0.39443-2.1181-0.61357-0.60942-0.21913-1.1185-0.48209-1.5273-0.78887-0.40876-0.30678-0.71718-0.6793-0.92527-1.1176-0.20809-0.43826-0.31214-0.96417-0.31214-1.5777 0-0.74505 0.1412-1.4024 0.42362-1.9722 0.28241-0.56974 0.6763-1.0518 1.1817-1.4463 0.50537-0.39444 1.1074-0.69026 1.806-0.88748 0.6986-0.19722 1.4566-0.29583 2.2742-0.29583 1.0702 0 2.0363 0.16069 2.8984 0.48209 0.86211 0.32139 1.6276 0.75235 2.2965 1.2929l-0.93642 1.5997z" fill="#282828" fill-opacity=".9"/>
<rect width="42.362" height="42" rx="3" fill="#EB191E"/>
<polyline points="23.509 12.052 23.509 17.793 28.844 15.974 30.471 20.181 25.132 22.392 28.485 27.097 24.878 29.735 21.233 24.995 17.664 29.735 13.876 27.097 17.268 22.213 11.891 20.181 13.443 15.974 18.96 17.793 18.96 12.052 23.509 12.052" fill="#fff"/>
</g>
</g>
</g>
</svg>
