<?xml version="1.0" encoding="UTF-8"?>
<svg width="191px" height="42px" viewBox="0 0 191 42" version="1.1" xmlns="http://www.w3.org/2000/svg" xmlns:xlink="http://www.w3.org/1999/xlink">
    <!-- Generator: Sketch 42 (36781) - http://www.bohemiancoding.com/sketch -->
    <title>logo</title>
    <desc>Created with Sketch.</desc>
    <defs></defs>
    <g id="Symbols" stroke="none" stroke-width="1" fill="none" fill-rule="evenodd">
        <g id="header" transform="translate(-514.000000, -82.000000)">
            <g id="logo" transform="translate(514.000000, 82.000000)">
                <g id="Group-2">
                    <path d="M70.5362257,15.4121739 L65.0737743,15.4121739 L65.0737743,29.2173913 L63.0671595,29.2173913 L63.0671595,15.4121739 L57.6047082,15.4121739 L57.6047082,13.6591304 L70.5362257,13.6591304 L70.5362257,15.4121739 Z M77.6188327,13.6591304 L79.3133074,13.6591304 L85.7790661,29.2173913 L83.638677,29.2173913 L81.7658366,24.6594783 L75.1217121,24.6594783 L73.2711673,29.2173913 L71.1307782,29.2173913 L77.6188327,13.6591304 Z M81.3199222,23.1255652 L78.46607,15.938087 L75.523035,23.1255652 L81.3199222,23.1255652 Z M101.534708,25.2073043 C101.534708,25.8062639 101.412083,26.3540845 101.166829,26.8507826 C100.921575,27.3474807 100.587142,27.7711287 100.163521,28.1217391 C99.7399006,28.4723496 99.2493997,28.7426077 98.6920039,28.9325217 C98.1346081,29.1224357 97.5363456,29.2173913 96.8971984,29.2173913 L89.3835409,29.2173913 L89.3835409,13.6591304 L97.25393,13.6591304 C97.8038938,13.6591304 98.3018266,13.7759988 98.7477432,14.0097391 C99.1936598,14.2434794 99.5726833,14.5466068 99.8848249,14.9191304 C100.196967,15.291654 100.438501,15.715302 100.609436,16.190087 C100.780371,16.6648719 100.865837,17.1433019 100.865837,17.6253913 C100.865837,18.399656 100.668893,19.115475 100.275,19.7728696 C99.881107,20.4302642 99.3200036,20.9196506 98.5916732,21.2410435 C99.4983703,21.5040013 100.215542,21.9897356 100.74321,22.6982609 C101.270878,23.4067862 101.534708,24.2431256 101.534708,25.2073043 Z M99.5057977,24.8566957 C99.5057977,24.5060852 99.4426271,24.1664364 99.316284,23.8377391 C99.189941,23.5090418 99.0190089,23.220523 98.8034825,22.9721739 C98.5879561,22.7238248 98.3315579,22.5266094 98.0342802,22.3805217 C97.7370024,22.2344341 97.4100018,22.1613913 97.0532685,22.1613913 L91.3901556,22.1613913 L91.3901556,27.5081739 L96.8971984,27.5081739 C97.2687956,27.5081739 97.6106599,27.4351312 97.9228016,27.2890435 C98.2349432,27.1429558 98.509921,26.9493925 98.7477432,26.7083478 C98.9855654,26.4673031 99.1713612,26.1860886 99.3051362,25.8646957 C99.4389112,25.5433027 99.5057977,25.2073061 99.5057977,24.8566957 Z M91.3901556,15.3683478 L91.3901556,20.5617391 L96.4289883,20.5617391 C96.7857216,20.5617391 97.1127222,20.4923485 97.41,20.3535652 C97.7072778,20.2147819 97.963676,20.0285229 98.1792023,19.7947826 C98.3947287,19.5610423 98.5656608,19.287132 98.6920039,18.9730435 C98.8183469,18.658955 98.8815175,18.3266104 98.8815175,17.976 C98.8815175,17.6107808 98.8220629,17.2674799 98.7031518,16.946087 C98.5842407,16.624694 98.4244563,16.3471316 98.2237938,16.1133913 C98.0231313,15.879651 97.7778808,15.6970441 97.488035,15.5655652 C97.1981892,15.4340863 96.8897682,15.3683478 96.5627626,15.3683478 L91.3901556,15.3683478 Z M105.83035,29.2173913 L105.83035,13.6591304 L107.836965,13.6591304 L107.836965,27.4643478 L116.66607,27.4643478 L116.66607,29.2173913 L105.83035,29.2173913 Z M131.083969,27.4643478 L131.083969,29.2173913 L120.337432,29.2173913 L120.337432,13.6591304 L130.883307,13.6591304 L130.883307,15.4121739 L122.344047,15.4121739 L122.344047,20.4521739 L129.768521,20.4521739 L129.768521,22.0956522 L122.344047,22.0956522 L122.344047,27.4643478 L131.083969,27.4643478 Z M135.312724,29.2173913 L135.312724,13.6591304 L137.319339,13.6591304 L137.319339,27.4643478 L146.148444,27.4643478 L146.148444,29.2173913 L135.312724,29.2173913 Z M160.566342,27.4643478 L160.566342,29.2173913 L149.819805,29.2173913 L149.819805,13.6591304 L160.365681,13.6591304 L160.365681,15.4121739 L151.82642,15.4121739 L151.82642,20.4521739 L159.250895,20.4521739 L159.250895,22.0956522 L151.82642,22.0956522 L151.82642,27.4643478 L160.566342,27.4643478 Z M174.092412,16.9241739 C173.914046,16.7196512 173.676227,16.5224357 173.378949,16.3325217 C173.081672,16.1426077 172.747239,15.9709573 172.375642,15.8175652 C172.004045,15.6641731 171.59901,15.5400005 171.160525,15.4450435 C170.722041,15.3500865 170.264983,15.3026087 169.789339,15.3026087 C168.555636,15.3026087 167.652668,15.5290412 167.080409,15.981913 C166.508149,16.4347849 166.222023,17.0556482 166.222023,17.8445217 C166.222023,18.268176 166.303774,18.6187812 166.467276,18.8963478 C166.630779,19.1739144 166.887177,19.4113034 167.236479,19.6085217 C167.58578,19.8057401 168.020542,19.9773906 168.540778,20.1234783 C169.061014,20.2695659 169.677856,20.4229557 170.391323,20.5836522 C171.208837,20.7589574 171.948304,20.959825 172.609747,21.1862609 C173.27119,21.4126968 173.836009,21.6939114 174.304222,22.029913 C174.772434,22.3659147 175.129162,22.7749541 175.374416,23.2570435 C175.61967,23.7391328 175.742296,24.3307791 175.742296,25.032 C175.742296,25.7770472 175.593659,26.4234755 175.296381,26.9713043 C174.999104,27.5191332 174.594069,27.9719982 174.081265,28.329913 C173.56846,28.6878279 172.962766,28.9507818 172.264163,29.1187826 C171.565561,29.2867834 170.807514,29.3707826 169.99,29.3707826 C168.771161,29.3707826 167.615511,29.1845236 166.523016,28.812 C165.43052,28.4394764 164.43837,27.8953079 163.546537,27.1794783 L164.505253,25.514087 C164.743075,25.762436 165.051496,26.0107814 165.430525,26.2591304 C165.809554,26.5074795 166.240601,26.7302599 166.723677,26.9274783 C167.206753,27.1246966 167.726982,27.2853907 168.284377,27.4095652 C168.841773,27.5337398 169.425172,27.5958261 170.034591,27.5958261 C171.164247,27.5958261 172.041203,27.3986107 172.665486,27.0041739 C173.28977,26.6097372 173.601907,26.0180909 173.601907,25.2292174 C173.601907,24.7909543 173.501577,24.4220885 173.300914,24.1226087 C173.100252,23.8231289 172.806695,23.5638272 172.420233,23.3446957 C172.033772,23.1255641 171.554419,22.9320008 170.98216,22.764 C170.4099,22.5959992 169.759615,22.4243487 169.031284,22.2490435 C168.228634,22.0591295 167.52261,21.8546098 166.913191,21.6354783 C166.303771,21.4163467 165.794691,21.1533928 165.385934,20.8466087 C164.977177,20.5398246 164.668756,20.1673065 164.460661,19.7290435 C164.252567,19.2907804 164.148521,18.7648726 164.148521,18.1513043 C164.148521,17.4062571 164.289726,16.7488724 164.57214,16.1791304 C164.854554,15.6093885 165.248441,15.1273063 165.753813,14.7328696 C166.259185,14.3384328 166.861164,14.0426097 167.559767,13.8453913 C168.258369,13.6481729 169.016416,13.5495652 169.83393,13.5495652 C170.90413,13.5495652 171.870268,13.7102593 172.732374,14.0316522 C173.594479,14.3530451 174.359958,14.7839973 175.028833,15.3245217 L174.092412,16.9241739 Z M189.156887,16.9241739 C188.978521,16.7196512 188.740702,16.5224357 188.443424,16.3325217 C188.146146,16.1426077 187.811714,15.9709573 187.440117,15.8175652 C187.06852,15.6641731 186.663485,15.5400005 186.225,15.4450435 C185.786515,15.3500865 185.329458,15.3026087 184.853813,15.3026087 C183.620111,15.3026087 182.717143,15.5290412 182.144883,15.981913 C181.572624,16.4347849 181.286498,17.0556482 181.286498,17.8445217 C181.286498,18.268176 181.368248,18.6187812 181.531751,18.8963478 C181.695254,19.1739144 181.951652,19.4113034 182.300953,19.6085217 C182.650255,19.8057401 183.085017,19.9773906 183.605253,20.1234783 C184.125489,20.2695659 184.742331,20.4229557 185.455798,20.5836522 C186.273311,20.7589574 187.012779,20.959825 187.674222,21.1862609 C188.335665,21.4126968 188.900484,21.6939114 189.368696,22.029913 C189.836909,22.3659147 190.193637,22.7749541 190.438891,23.2570435 C190.684145,23.7391328 190.80677,24.3307791 190.80677,25.032 C190.80677,25.7770472 190.658134,26.4234755 190.360856,26.9713043 C190.063578,27.5191332 189.658543,27.9719982 189.145739,28.329913 C188.632935,28.6878279 188.027241,28.9507818 187.328638,29.1187826 C186.630035,29.2867834 185.871989,29.3707826 185.054475,29.3707826 C183.835636,29.3707826 182.679986,29.1845236 181.58749,28.812 C180.494995,28.4394764 179.502845,27.8953079 178.611012,27.1794783 L179.569728,25.514087 C179.80755,25.762436 180.115971,26.0107814 180.495,26.2591304 C180.874029,26.5074795 181.305075,26.7302599 181.788152,26.9274783 C182.271228,27.1246966 182.791456,27.2853907 183.348852,27.4095652 C183.906248,27.5337398 184.489647,27.5958261 185.099066,27.5958261 C186.228722,27.5958261 187.105678,27.3986107 187.729961,27.0041739 C188.354244,26.6097372 188.666381,26.0180909 188.666381,25.2292174 C188.666381,24.7909543 188.566052,24.4220885 188.365389,24.1226087 C188.164727,23.8231289 187.871169,23.5638272 187.484708,23.3446957 C187.098247,23.1255641 186.618894,22.9320008 186.046634,22.764 C185.474375,22.5959992 184.824089,22.4243487 184.095759,22.2490435 C183.293109,22.0591295 182.587085,21.8546098 181.977665,21.6354783 C181.368246,21.4163467 180.859165,21.1533928 180.450409,20.8466087 C180.041652,20.5398246 179.733231,20.1673065 179.525136,19.7290435 C179.317042,19.2907804 179.212996,18.7648726 179.212996,18.1513043 C179.212996,17.4062571 179.354201,16.7488724 179.636615,16.1791304 C179.919029,15.6093885 180.312916,15.1273063 180.818288,14.7328696 C181.32366,14.3384328 181.925639,14.0426097 182.624241,13.8453913 C183.322844,13.6481729 184.080891,13.5495652 184.898405,13.5495652 C185.968605,13.5495652 186.934743,13.7102593 187.796848,14.0316522 C188.658954,14.3530451 189.424432,14.7839973 190.093307,15.3245217 L189.156887,16.9241739 Z" id="TABLELESS" fill-opacity="0.9" fill="#282828"></path>
                    <rect id="Rectangle" fill="#EB191E" x="0" y="0" width="42.3618677" height="42" rx="3"></rect>
                    <polyline id="Fill-12" fill="#FFFFFF" points="23.5092296 12.0521739 23.5092296 17.7928572 28.8437058 15.973575 30.4708171 20.1813235 25.1317437 22.3921779 28.4847027 27.09662 24.8781638 29.7351885 21.2330708 24.9946044 17.6638323 29.7351885 13.8759112 27.09662 17.2676333 22.2127073 11.8910506 20.1813235 13.4430388 15.973575 18.9603599 17.7928572 18.9603599 12.0521739 23.5092296 12.0521739"></polyline>
                </g>
            </g>
        </g>
    </g>
</svg>