<?xml version="1.0" encoding="UTF-8"?>
<svg width="21px" height="21px" viewBox="0 0 21 21" version="1.1" xmlns="http://www.w3.org/2000/svg" xmlns:xlink="http://www.w3.org/1999/xlink">
    <!-- Generator: Sketch 42 (36781) - http://www.bohemiancoding.com/sketch -->
    <title>Shape</title>
    <desc>Created with Sketch.</desc>
    <defs></defs>
    <g id="Symbols" stroke="none" stroke-width="1" fill="none" fill-rule="evenodd">
        <g id="busca" transform="translate(-176.000000, -7.000000)" fill="#6D6D6D">
            <path d="M191.010119,14.7932079 L190.056829,14.7932079 L189.725459,15.1221771 C190.896061,16.4872792 191.608027,18.2569893 191.608027,20.1959865 C191.608027,24.5062032 188.11423,28 183.804013,28 C179.493797,28 176,24.5062032 176,20.1959865 C176,15.8857698 179.493797,12.391973 183.804013,12.391973 C185.743011,12.391973 187.51152,13.1027386 188.876622,14.27214 L189.207993,13.9431708 L189.207993,12.9922817 L195.208679,7 L196.998799,8.79012063 L191.010119,14.7932079 L191.010119,14.7932079 Z M183.804013,14.7932079 C180.819278,14.7932079 178.401235,17.2112515 178.401235,20.1959865 C178.401235,23.1795209 180.819278,25.5987651 183.804013,25.5987651 C186.787548,25.5987651 189.206792,23.1795209 189.206792,20.1959865 C189.206792,17.2112515 186.787548,14.7932079 183.804013,14.7932079 L183.804013,14.7932079 Z" id="Shape" transform="translate(186.499400, 17.500000) scale(1, -1) translate(-186.499400, -17.500000) "></path>
        </g>
    </g>
</svg>