<?xml version="1.0" encoding="utf-8"?>
<!-- Generator: Adobe Illustrator 20.0.0, SVG Export Plug-In . SVG Version: 6.00 Build 0)  -->
<svg version="1.1" id="Layer_1" xmlns="http://www.w3.org/2000/svg" xmlns:xlink="http://www.w3.org/1999/xlink" x="0px" y="0px"
	 viewBox="0 0 262.6 121.4" style="enable-background:new 0 0 262.6 121.4;" xml:space="preserve">
<style type="text/css">
	.st0{fill:#414040;}
</style>
<path id="XMLID_27_" class="st0" d="M71.9,2.3h11.4c0.6,0,1.1,0.5,1.1,1.1v114.6c0,0.6-0.5,1.1-1.1,1.1H71.9c-0.6,0-1.1-0.5-1.1-1.1
	V3.4C70.8,2.8,71.3,2.3,71.9,2.3z M150.5,96.6v2.9c0,1.3-0.2,3-0.7,5.2c-0.4,2.1-1.5,4.3-3.4,6.4c-1.8,2.1-4.5,4-8.2,5.6
	c-3.7,1.5-8.7,2.3-15.1,2.3c-6.4,0-11.4-0.8-15.1-2.3c-3.7-1.5-6.3-3.4-8.2-5.6c-1.8-2.1-3-4.3-3.4-6.5c-0.4-2.2-0.7-3.8-0.7-5.1
	v-1.7V34.2c0-0.6,0.5-1.1,1.1-1.1h11.4c0.6,0,1.1,0.5,1.1,1.1v61.1c0,2,0.3,3.5,0.6,4.6s0.9,2.3,1.7,3.3c0.9,1.1,2.2,1.9,4,2.6
	c1.7,0.7,4.1,1.1,7.1,1.1c3.1,0,5.6-0.4,7.4-1.1s3.2-1.5,4.1-2.5c1-1,1.6-2,1.9-3.2c0.3-1.2,0.7-2.1,0.7-4.9v-61
	c0-0.6,0.5-1.1,1.1-1.1h11.4c0.6,0,1.1,0.5,1.1,1.1L150.5,96.6L150.5,96.6z M189.5,33.2h7.7c0.7,0,1.2,0.7,1,1.3l-2.6,10
	c-0.1,0.5-0.6,0.8-1,0.8h-5.4c-2.9,0-5.2,0.4-7,1.2c-1.7,0.8-3.2,1.6-4.1,2.7c-1,1.1-1.5,2.1-1.8,3.2c-0.3,1.2-0.4,2.2-0.4,3.2v1.4
	V118c0,0.6-0.5,1.1-1.1,1.1h-11.5c-0.6,0-1.1-0.5-1.1-1.1V56.5v-3.7c0-1.2,0.2-2.9,0.7-5.1c0.4-2.2,1.5-4.3,3.4-6.5
	c1.8-2.1,4.5-4,8.2-5.6C178,34,183.1,33.2,189.5,33.2z M32.2,33.2c9.3,0,16.2,1.8,20.6,5.5c4.3,3.7,6.5,8.3,6.5,13.8V60v34.9v4.6
	c0,1.9-0.4,4-1.1,6.3c-0.7,2.3-2,4.4-4,6.3c-2,1.9-4.8,3.5-8.3,4.8c-3.5,1.3-8.1,1.9-13.7,1.9c-5.7,0-10.2-0.7-13.7-1.9
	s-6.3-2.9-8.3-4.8c-2-1.9-3.4-4-4-6.3c-0.7-2.3-1.1-4.4-1.1-6.3v-7.5c0-4,1.1-7.7,3.1-11c2.1-3.3,5-5.7,8.8-7c1.9-0.7,4-1.3,6.5-2.2
	c2.4-0.9,4.8-1.6,7.1-2.5c2.3-0.8,4.2-1.5,6-2.1c1.7-0.7,2.8-1,3.2-1.2c0.4-0.2,1-0.5,1.6-0.9c0.7-0.4,1.3-1,2-1.6
	c0.7-0.8,1.2-1.6,1.6-2.5c0.5-1,0.7-2.1,0.7-3.4v-3c0-1.1-0.2-2.1-0.7-3.3c-0.4-1.2-1.2-2.1-2.2-3.1c-1.1-1-2.5-1.7-4.2-2.3
	c-1.7-0.6-3.9-0.9-6.6-0.9c-5.3,0-8.8,1.1-10.8,3.3c-1.6,1.9-2.6,4.2-2.8,6.9c0,0.6-0.5,1-1.1,1H6.1c-0.6,0-1.1-0.5-1.1-1.1v-2.8
	c0-2.7,0.5-5.2,1.5-7.5c1-2.3,2.6-4.4,4.9-6.2c2.2-1.7,5-3.2,8.5-4.1C23.3,33.8,27.4,33.2,32.2,33.2z M45.9,75.4
	c-0.2,1.1-0.8,1.8-1.6,2.4c-0.9,0.6-1.6,0.9-2.4,1.2c-1.6,0.6-3.4,1.2-5.2,1.8c-1.8,0.7-3.6,1.3-5.2,1.8c-1.9,0.7-3.8,1.3-5.4,1.9
	c-1.3,0.6-2.5,1.3-3.7,2.2c-1,0.9-1.8,1.9-2.6,3.3s-1.2,3-1.2,5c0,4,1,7,2.9,9c1.9,1.9,5.5,3,10.7,3c5.3,0,8.9-1.1,10.9-3.1
	c1.9-2.1,2.9-5,2.9-8.8L45.9,75.4L45.9,75.4z M230.5,33.2c9.3,0,16.2,1.8,20.6,5.5c4.3,3.7,6.5,8.3,6.5,13.8V60v34.9v4.6
	c0,1.9-0.4,4-1.1,6.3c-0.7,2.3-2,4.4-4,6.3c-2,1.9-4.8,3.5-8.3,4.8c-3.5,1.3-8.1,1.9-13.7,1.9c-5.7,0-10.2-0.7-13.7-1.9
	s-6.3-2.9-8.3-4.8c-2-1.9-3.4-4-4-6.3c-0.7-2.3-1.1-4.4-1.1-6.3v-7.5c0-4,1.1-7.7,3.1-11c2.1-3.3,5-5.7,8.8-7c1.9-0.7,4-1.3,6.5-2.2
	c2.4-0.9,4.8-1.6,7.1-2.5c2.3-0.8,4.2-1.5,6-2.1c1.7-0.7,2.8-1,3.2-1.2c0.4-0.2,1-0.5,1.6-0.9c0.7-0.4,1.3-1,2-1.6
	c0.7-0.8,1.2-1.6,1.6-2.5c0.5-1,0.7-2.1,0.7-3.4v-3c0-1.1-0.2-2.1-0.7-3.3c-0.4-1.2-1.2-2.1-2.2-3.1c-1.1-1-2.5-1.7-4.2-2.3
	c-1.7-0.6-3.9-0.9-6.6-0.9c-5.3,0-8.8,1.1-10.8,3.3c-1.6,1.9-2.6,4.2-2.8,6.9c0,0.6-0.5,1-1.1,1h-11.5c-0.6,0-1.1-0.5-1.1-1.1v-2.8
	c0-2.7,0.5-5.2,1.5-7.5c1-2.3,2.6-4.4,4.9-6.2c2.2-1.7,5-3.2,8.5-4.1C221.6,33.8,225.7,33.2,230.5,33.2z M244.1,75.4
	c-0.2,1.1-0.8,1.8-1.6,2.4c-0.9,0.6-1.6,0.9-2.4,1.2c-1.6,0.6-3.4,1.2-5.2,1.8c-1.8,0.7-3.6,1.3-5.2,1.8c-1.9,0.7-3.8,1.3-5.4,1.9
	c-1.3,0.6-2.5,1.3-3.7,2.2c-1,0.9-1.8,1.9-2.6,3.3c-0.8,1.3-1.2,3-1.2,5c0,4,1,7,2.9,9c1.9,1.9,5.5,3,10.7,3c5.3,0,8.9-1.1,10.9-3.1
	c1.9-2.1,2.9-5,2.9-8.8L244.1,75.4L244.1,75.4z"/>
</svg>
